<mxfile host="app.diagrams.net" modified="2024-05-23T11:57:12.013Z" agent="Mozilla/5.0 (Windows NT 10.0; Win64; x64) AppleWebKit/537.36 (KHTML, like Gecko) Chrome/121.0.0.0 Safari/537.36" etag="gO1E-xDKvG4Q0iNaHg2s" version="24.4.6" type="device">
  <diagram name="PÃ¡gina-1" id="_2hTEw-3M_o8YY0PMDv2">
    <mxGraphModel dx="1434" dy="782" grid="1" gridSize="10" guides="1" tooltips="1" connect="1" arrows="1" fold="1" page="1" pageScale="1" pageWidth="827" pageHeight="1169" math="0" shadow="0">
      <root>
        <mxCell id="0" />
        <mxCell id="1" parent="0" />
        <mxCell id="XO3UlhAgwWdB9TntdLPH-3" value="" style="edgeStyle=orthogonalEdgeStyle;rounded=0;orthogonalLoop=1;jettySize=auto;html=1;" edge="1" parent="1" source="XO3UlhAgwWdB9TntdLPH-1" target="XO3UlhAgwWdB9TntdLPH-2">
          <mxGeometry relative="1" as="geometry" />
        </mxCell>
        <mxCell id="XO3UlhAgwWdB9TntdLPH-1" value="INICIO" style="ellipse;whiteSpace=wrap;html=1;" vertex="1" parent="1">
          <mxGeometry x="310" y="80" width="120" height="80" as="geometry" />
        </mxCell>
        <mxCell id="XO3UlhAgwWdB9TntdLPH-7" value="" style="edgeStyle=orthogonalEdgeStyle;rounded=0;orthogonalLoop=1;jettySize=auto;html=1;" edge="1" parent="1" source="XO3UlhAgwWdB9TntdLPH-2" target="XO3UlhAgwWdB9TntdLPH-6">
          <mxGeometry relative="1" as="geometry" />
        </mxCell>
        <mxCell id="XO3UlhAgwWdB9TntdLPH-2" value="CAMPO DE CADASTRO" style="whiteSpace=wrap;html=1;" vertex="1" parent="1">
          <mxGeometry x="310" y="210" width="120" height="60" as="geometry" />
        </mxCell>
        <mxCell id="XO3UlhAgwWdB9TntdLPH-9" value="" style="edgeStyle=orthogonalEdgeStyle;rounded=0;orthogonalLoop=1;jettySize=auto;html=1;" edge="1" parent="1" source="XO3UlhAgwWdB9TntdLPH-6" target="XO3UlhAgwWdB9TntdLPH-8">
          <mxGeometry relative="1" as="geometry" />
        </mxCell>
        <mxCell id="XO3UlhAgwWdB9TntdLPH-6" value="PREENCHER CAMPO" style="whiteSpace=wrap;html=1;" vertex="1" parent="1">
          <mxGeometry x="310" y="340" width="120" height="60" as="geometry" />
        </mxCell>
        <mxCell id="XO3UlhAgwWdB9TntdLPH-11" value="NAO" style="edgeStyle=orthogonalEdgeStyle;rounded=0;orthogonalLoop=1;jettySize=auto;html=1;" edge="1" parent="1" source="XO3UlhAgwWdB9TntdLPH-8" target="XO3UlhAgwWdB9TntdLPH-10">
          <mxGeometry relative="1" as="geometry" />
        </mxCell>
        <mxCell id="XO3UlhAgwWdB9TntdLPH-18" value="" style="edgeStyle=orthogonalEdgeStyle;rounded=0;orthogonalLoop=1;jettySize=auto;html=1;" edge="1" parent="1" source="XO3UlhAgwWdB9TntdLPH-8" target="XO3UlhAgwWdB9TntdLPH-17">
          <mxGeometry relative="1" as="geometry" />
        </mxCell>
        <mxCell id="XO3UlhAgwWdB9TntdLPH-8" value="DADOS VALIDOS?" style="rhombus;whiteSpace=wrap;html=1;" vertex="1" parent="1">
          <mxGeometry x="330" y="470" width="80" height="80" as="geometry" />
        </mxCell>
        <mxCell id="XO3UlhAgwWdB9TntdLPH-12" style="edgeStyle=orthogonalEdgeStyle;rounded=0;orthogonalLoop=1;jettySize=auto;html=1;entryX=0;entryY=0.5;entryDx=0;entryDy=0;" edge="1" parent="1" source="XO3UlhAgwWdB9TntdLPH-10" target="XO3UlhAgwWdB9TntdLPH-1">
          <mxGeometry relative="1" as="geometry">
            <Array as="points">
              <mxPoint x="180" y="120" />
            </Array>
          </mxGeometry>
        </mxCell>
        <mxCell id="XO3UlhAgwWdB9TntdLPH-10" value="MOSTRAR ERRO" style="whiteSpace=wrap;html=1;" vertex="1" parent="1">
          <mxGeometry x="120" y="480" width="120" height="60" as="geometry" />
        </mxCell>
        <mxCell id="XO3UlhAgwWdB9TntdLPH-24" value="" style="edgeStyle=orthogonalEdgeStyle;rounded=0;orthogonalLoop=1;jettySize=auto;html=1;" edge="1" parent="1" source="XO3UlhAgwWdB9TntdLPH-17" target="XO3UlhAgwWdB9TntdLPH-23">
          <mxGeometry relative="1" as="geometry" />
        </mxCell>
        <mxCell id="XO3UlhAgwWdB9TntdLPH-17" value="LISTAR PRODUTO" style="whiteSpace=wrap;html=1;" vertex="1" parent="1">
          <mxGeometry x="470" y="480" width="120" height="60" as="geometry" />
        </mxCell>
        <mxCell id="XO3UlhAgwWdB9TntdLPH-26" value="" style="edgeStyle=orthogonalEdgeStyle;rounded=0;orthogonalLoop=1;jettySize=auto;html=1;" edge="1" parent="1" source="XO3UlhAgwWdB9TntdLPH-23" target="XO3UlhAgwWdB9TntdLPH-25">
          <mxGeometry relative="1" as="geometry" />
        </mxCell>
        <mxCell id="XO3UlhAgwWdB9TntdLPH-23" value="BUSCAR PRODUTO" style="whiteSpace=wrap;html=1;" vertex="1" parent="1">
          <mxGeometry x="670" y="480" width="120" height="60" as="geometry" />
        </mxCell>
        <mxCell id="XO3UlhAgwWdB9TntdLPH-33" value="SIM" style="edgeStyle=orthogonalEdgeStyle;rounded=0;orthogonalLoop=1;jettySize=auto;html=1;" edge="1" parent="1" source="XO3UlhAgwWdB9TntdLPH-25" target="XO3UlhAgwWdB9TntdLPH-32">
          <mxGeometry relative="1" as="geometry" />
        </mxCell>
        <mxCell id="XO3UlhAgwWdB9TntdLPH-36" value="NAO" style="edgeStyle=orthogonalEdgeStyle;rounded=0;orthogonalLoop=1;jettySize=auto;html=1;entryX=0.5;entryY=1;entryDx=0;entryDy=0;" edge="1" parent="1" source="XO3UlhAgwWdB9TntdLPH-25" target="XO3UlhAgwWdB9TntdLPH-17">
          <mxGeometry relative="1" as="geometry">
            <Array as="points">
              <mxPoint x="900" y="590" />
              <mxPoint x="530" y="590" />
            </Array>
          </mxGeometry>
        </mxCell>
        <mxCell id="XO3UlhAgwWdB9TntdLPH-25" value="PRODUTO EXISTENTE?" style="rhombus;whiteSpace=wrap;html=1;" vertex="1" parent="1">
          <mxGeometry x="860" y="470" width="80" height="80" as="geometry" />
        </mxCell>
        <mxCell id="XO3UlhAgwWdB9TntdLPH-40" value="" style="edgeStyle=orthogonalEdgeStyle;rounded=0;orthogonalLoop=1;jettySize=auto;html=1;" edge="1" parent="1" source="XO3UlhAgwWdB9TntdLPH-32" target="XO3UlhAgwWdB9TntdLPH-39">
          <mxGeometry relative="1" as="geometry" />
        </mxCell>
        <mxCell id="XO3UlhAgwWdB9TntdLPH-49" value="SIM" style="edgeLabel;html=1;align=center;verticalAlign=middle;resizable=0;points=[];" vertex="1" connectable="0" parent="XO3UlhAgwWdB9TntdLPH-40">
          <mxGeometry x="-0.2" y="-2" relative="1" as="geometry">
            <mxPoint as="offset" />
          </mxGeometry>
        </mxCell>
        <mxCell id="XO3UlhAgwWdB9TntdLPH-47" value="" style="edgeStyle=orthogonalEdgeStyle;rounded=0;orthogonalLoop=1;jettySize=auto;html=1;" edge="1" parent="1" source="XO3UlhAgwWdB9TntdLPH-32" target="XO3UlhAgwWdB9TntdLPH-46">
          <mxGeometry relative="1" as="geometry" />
        </mxCell>
        <mxCell id="XO3UlhAgwWdB9TntdLPH-48" value="NAO" style="edgeLabel;html=1;align=center;verticalAlign=middle;resizable=0;points=[];" vertex="1" connectable="0" parent="XO3UlhAgwWdB9TntdLPH-47">
          <mxGeometry x="0.1667" y="-3" relative="1" as="geometry">
            <mxPoint as="offset" />
          </mxGeometry>
        </mxCell>
        <mxCell id="XO3UlhAgwWdB9TntdLPH-32" value="APAGAR?" style="rhombus;whiteSpace=wrap;html=1;" vertex="1" parent="1">
          <mxGeometry x="860" y="330" width="80" height="80" as="geometry" />
        </mxCell>
        <mxCell id="XO3UlhAgwWdB9TntdLPH-42" value="SIM" style="edgeStyle=orthogonalEdgeStyle;rounded=0;orthogonalLoop=1;jettySize=auto;html=1;" edge="1" parent="1" source="XO3UlhAgwWdB9TntdLPH-39" target="XO3UlhAgwWdB9TntdLPH-41">
          <mxGeometry relative="1" as="geometry" />
        </mxCell>
        <mxCell id="XO3UlhAgwWdB9TntdLPH-39" value="COFIRMAR" style="rhombus;whiteSpace=wrap;html=1;" vertex="1" parent="1">
          <mxGeometry x="700" y="330" width="80" height="80" as="geometry" />
        </mxCell>
        <mxCell id="XO3UlhAgwWdB9TntdLPH-43" style="edgeStyle=orthogonalEdgeStyle;rounded=0;orthogonalLoop=1;jettySize=auto;html=1;entryX=1;entryY=0.5;entryDx=0;entryDy=0;" edge="1" parent="1" source="XO3UlhAgwWdB9TntdLPH-41" target="XO3UlhAgwWdB9TntdLPH-1">
          <mxGeometry relative="1" as="geometry">
            <Array as="points">
              <mxPoint x="475" y="370" />
              <mxPoint x="475" y="120" />
            </Array>
          </mxGeometry>
        </mxCell>
        <mxCell id="XO3UlhAgwWdB9TntdLPH-41" value="APAGAR CLIENTE" style="whiteSpace=wrap;html=1;" vertex="1" parent="1">
          <mxGeometry x="520" y="340" width="120" height="60" as="geometry" />
        </mxCell>
        <mxCell id="XO3UlhAgwWdB9TntdLPH-46" value="ATUALIZAR?" style="rhombus;whiteSpace=wrap;html=1;" vertex="1" parent="1">
          <mxGeometry x="860" y="180" width="80" height="80" as="geometry" />
        </mxCell>
      </root>
    </mxGraphModel>
  </diagram>
</mxfile>
